<svg id="Layer_1" data-name="Layer 1" xmlns="http://www.w3.org/2000/svg" viewBox="0 0 323.9 87.5"><defs><style>.cls-1{fill:#006f53;}.cls-2{fill:#746d64;}</style></defs><title>Ohio Logo Green Gray-2</title><path class="cls-1" d="M73.8,13.2C94,14.8,111,22.3,119.4,32.5h2C112.7,21.1,94.1,12.8,72,11.4a10.18,10.18,0,0,1,1.8,1.8h0Z"/><path class="cls-1" d="M58.8,11.5C36.9,12.9,18.5,21.2,9.9,32.6h2C20.2,22.4,37.1,15,57.2,13.3a6.7,6.7,0,0,1,1.6-1.8h0Z"/><polygon class="cls-1" points="69.4 42 71.5 42 71.5 45.1 69.4 45.1 69.4 42"/><polygon class="cls-1" points="63.6 42 65.7 42 65.7 45.1 63.6 45.1 63.6 42"/><polygon class="cls-1" points="58 42 60.1 42 60.1 45.1 58 45.1 58 42"/><polygon class="cls-1" points="52.5 42 54.6 42 54.6 45.1 52.5 45.1 52.5 42"/><polygon class="cls-1" points="75.2 42 77.3 42 77.3 45.1 75.2 45.1 75.2 42"/><polygon class="cls-1" points="81 42 83 42 83 45.1 81 45.1 81 42"/><polygon class="cls-1" points="86.6 42 88.7 42 88.7 45.1 86.6 45.1 86.6 42"/><path class="cls-1" d="M64.6,29.9a1.7,1.7,0,1,0,1.7-1.7,1.69,1.69,0,0,0-1.7,1.7h0Z"/><polygon class="cls-1" points="69.4 47.2 71.5 47.2 71.5 50.3 69.4 50.3 69.4 47.2"/><polygon class="cls-1" points="63.6 47.2 65.7 47.2 65.7 50.3 63.6 50.3 63.6 47.2"/><polygon class="cls-1" points="58 47.2 60.1 47.2 60.1 50.3 58 50.3 58 47.2"/><polygon class="cls-1" points="52.5 47.2 54.6 47.2 54.6 50.3 52.5 50.3 52.5 47.2"/><polygon class="cls-1" points="75.2 47.2 77.3 47.2 77.3 50.3 75.2 50.3 75.2 47.2"/><polygon class="cls-1" points="81 47.2 83 47.2 83 50.3 81 50.3 81 47.2"/><polygon class="cls-1" points="86.6 47.2 88.7 47.2 88.7 50.3 86.6 50.3 86.6 47.2"/><polygon class="cls-1" points="63.6 52.5 65.7 52.5 65.7 55.6 63.6 55.6 63.6 52.5"/><polygon class="cls-1" points="58 52.5 60.1 52.5 60.1 55.6 58 55.6 58 52.5"/><polygon class="cls-1" points="52.5 52.5 54.6 52.5 54.6 55.6 52.5 55.6 52.5 52.5"/><polygon class="cls-1" points="75.2 52.5 77.3 52.5 77.3 55.6 75.2 55.6 75.2 52.5"/><polygon class="cls-1" points="81 52.5 83 52.5 83 55.6 81 55.6 81 52.5"/><polygon class="cls-1" points="86.6 52.5 88.7 52.5 88.7 55.6 86.6 55.6 86.6 52.5"/><path class="cls-1" d="M66.7,12L65.6,0,64.7,11.9a4.67,4.67,0,0,0-3.9,4.2l3.1-.9h3.8l2.4,0.9A5,5,0,0,0,66.7,12h0Z"/><polygon class="cls-1" points="19.3 48.8 20.9 48.8 20.9 51.4 19.3 51.4 19.3 48.8"/><polygon class="cls-1" points="23.6 48.8 25.2 48.8 25.2 51.4 23.6 51.4 23.6 48.8"/><polygon class="cls-1" points="27.7 48.8 29.4 48.8 29.4 51.4 27.7 51.4 27.7 48.8"/><polygon class="cls-1" points="19.3 44.1 20.9 44.1 20.9 46.7 19.3 46.7 19.3 44.1"/><polygon class="cls-1" points="23.6 44.1 25.2 44.1 25.2 46.7 23.6 46.7 23.6 44.1"/><polygon class="cls-1" points="27.7 44.1 29.4 44.1 29.4 46.7 27.7 46.7 27.7 44.1"/><polygon class="cls-1" points="19.3 53.6 20.9 53.6 20.9 56.2 19.3 56.2 19.3 53.6"/><polygon class="cls-1" points="27.7 53.6 29.4 53.6 29.4 56.2 27.7 56.2 27.7 53.6"/><path class="cls-1" d="M23.4,41.3h0Z"/><path class="cls-1" d="M25.2,41.2a0.9,0.9,0,0,0-1.8,0v1.1h1.7l0.1-1.1h0Z"/><polygon class="cls-1" points="116 48.8 117.6 48.8 117.6 51.4 116 51.4 116 48.8"/><polygon class="cls-1" points="120.2 48.8 121.8 48.8 121.8 51.4 120.2 51.4 120.2 48.8"/><polygon class="cls-1" points="124.4 48.8 126 48.8 126 51.4 124.4 51.4 124.4 48.8"/><polygon class="cls-1" points="116 44.1 117.6 44.1 117.6 46.7 116 46.7 116 44.1"/><polygon class="cls-1" points="120.2 44.1 121.8 44.1 121.8 46.7 120.2 46.7 120.2 44.1"/><polygon class="cls-1" points="124.4 44.1 126 44.1 126 46.7 124.4 46.7 124.4 44.1"/><polygon class="cls-1" points="116 53.6 117.6 53.6 117.6 56.2 116 56.2 116 53.6"/><polygon class="cls-1" points="124.4 53.6 126 53.6 126 56.2 124.4 56.2 124.4 53.6"/><path class="cls-1" d="M120.1,41.3h0c-0.1,0,0,.1,0,0h0Z"/><path class="cls-1" d="M121.9,41.2a0.9,0.9,0,0,0-1.8,0v1.1h1.7V41.2h0.1Z"/><path class="cls-1" d="M91.1,73.1H93V71.6h1.1V70.2H93V65.4H90.8L87.7,70v1.6h3.4v1.5h0ZM74,73.2c2.5,0,3-2,3-3.9s-0.4-3.9-3-3.9-3,2-3,3.9,0.5,3.9,3,3.9h0Zm-34-.1h2V65.5H40.2l-2.6,1.7,0.9,1.4,1.4-1v5.5H40Zm14.4-5.6a1.71,1.71,0,0,0,1.3,1.6A2,2,0,0,0,54.2,71c0,1.6,1.3,2.2,3,2.2s3-.6,3-2.3A2,2,0,0,0,58.7,69,1.86,1.86,0,0,0,60,67.2c0-1.3-1.1-2-2.6-2-1.7.1-3,.7-3,2.3h0Zm75.3-25.8h-3V39.2h-2.8V37.4h-5.7v1.8h-2.8v2.4h-2.6V59.5h7V54.8h2.5v4.7h7.1V61h-8.8c-9.5,11.2-31.5,20.6-55.9,20.6S20.5,72.2,11,61H0V41.6H2.7v-3H5.8V36.1H29.2v2H32v2.5h1v1H30V39.1H27.2V37.3H21.5v1.8H18.7v2.4H16.1V59.4h7V54.7h2.5v4.7H36.2V39.3l-0.7-.7,6.3-6.3H59.9V26.5H59.3V25.9l0.8-.8H61V18.7l-0.8-.2L60,17.9l2.9-.8v8.3h1.6V16.9h2.7v8.5h1.6V17.1l2,0.8-0.2.5-0.8.2v6.8h0.7l0.6,0.7v0.6H62.3v7.7h8.2V32.5H86.6l6.3,6.3-0.7.7H48.6V59.6h20V54.9a1.73,1.73,0,0,1,3.4,0v4.7H96.6V41.7h2.8v-3h3.1V36.2h23.4v2.1h2.8v2.5h1v0.9h0ZM65.8,18.3a0.8,0.8,0,1,0,.8.8,0.79,0.79,0,0,0-.8-0.8h0ZM91.2,70.2H89.1L91.2,67v3.2h0ZM74,71.8c-0.9,0-1-1.4-1-2.6s0.1-2.6,1-2.6,1,1.4,1,2.6-0.1,2.6-1,2.6h0Zm-15.9-1a1,1,0,0,1-1,1,1,1,0,0,1-1-.9,1,1,0,1,1,2-.1h0Zm-1.9-3.3a0.9,0.9,0,0,1,.9-0.9,0.88,0.88,0,0,1,.9.8,1.24,1.24,0,0,1-.9,1.1,1.17,1.17,0,0,1-.9-1h0Z"/><path class="cls-2" d="M250.6,73.2v5.4c1.8-.1,3.5-0.9,3.5-3,0-1.9-1.8-2.4-3.5-2.4h0Zm4.2,10.5c-0.7-1-1.3-2-1.6-2.5-0.9-1.7-.8-1.6-2.6-1.9v1.9c0,2.6-.1,3.5,3,3.7v0.5h-8V84.9c2.3-.4,2.5-0.2,2.5-3.7V76.1c0-2.6-.1-2.9-2.5-3.1V72.5h5.9c2.3,0,5.5,0,5.5,3a3.4,3.4,0,0,1-2.5,3.1l2,3.7a9,9,0,0,0,7.4,4.4h0.9a9.1,9.1,0,0,1-10-3h0Z"/><path class="cls-2" d="M164.7,73c1.8,0.4,2.7.2,2.8,2.3l0.1,4.6c0.1,2.4-.4,4.6-3.5,4.6a4.38,4.38,0,0,1-3.6-1.6,7.41,7.41,0,0,1-.6-3.6V76.6c0-2.6-.1-3.5,2.5-3.7V72.4h-7.5v0.5c2.3,0.4,2.5.2,2.5,3.7v3c0,1.6-.2,3.4,1.1,4.6a6.82,6.82,0,0,0,4.4,1.4,5.87,5.87,0,0,0,4.4-1.6c1.1-1.1,1.1-2.9,1.2-4.4l0.1-2.9c0.2-3.2.2-3.5,2-3.9h0.8l0.1-.5h-6.8V73h0Z"/><path class="cls-2" d="M177.4,82.1c0,2.6-1,2.5-2.3,2.8v0.5h6.2V84.9c-2.2-.5-2.7-0.6-2.7-3-0.1-2.1-.2-4.1-0.1-6.2,3.1,3.4,10.4,11.8,10.4,11.8V77.1c0-3.1.1-3.9,1.8-4.1V72.5h-5.8V73c2.2,0.3,2.8.6,2.9,2.9l0.1,6.1h0c-2.7-3.2-6.1-6.4-8.5-9.5H175V73c2.4,0.4,2.5,1.8,2.5,3.8v5.3h-0.1Z"/><path class="cls-2" d="M201.8,76.6c0-3.4.2-3.3,2.5-3.7V72.4h-7.5v0.5c2.3,0.4,2.5.2,2.5,3.7v4.5c0,3.4-.2,3.3-2.5,3.7v0.5h7.5V84.8c-2.3-.4-2.5-0.2-2.5-3.7V76.6h0Z"/><path class="cls-2" d="M216.3,87.5l4.1-10c1.3-3.1,1.8-4.3,3.5-4.5V72.5h-6V73c2.4,0.4,3,.3,1,5.5l-1.7,4.1-2.6-6.3c-1.2-2.8-1.1-2.8,1.1-3.3V72.5h-6.8V73c1.5,0.5,1.5.4,2.5,2.5l4.9,12h0Z"/><path class="cls-2" d="M234.5,79.2c1.7,0,2.6,0,2.9,1.8h0.5a38.47,38.47,0,0,1,.1-4.8h-0.5c-0.5,1.7-1.3,1.9-3,1.9h-1.6V73.2h1.4c2.1,0,3.8,0,3.9,2.5h0.6l0.4-3.3H227.9v0.5c2.3,0.4,2.5.2,2.5,3.7v4.5c0,3.4-.2,3.3-2.5,3.7v0.5h11.5a13.08,13.08,0,0,0,.7-4.4h-0.6c-0.5,2.2-1.6,3.6-4.1,3.6s-2.6-.9-2.6-2.8V79.2h1.7Z"/><path class="cls-2" d="M283.9,76.6c0-3.4.2-3.3,2.5-3.7V72.4h-7.5v0.5c2.3,0.4,2.5.2,2.5,3.7v4.5c0,3.4-.2,3.3-2.5,3.7v0.5h7.5V84.8c-2.3-.4-2.5-0.2-2.5-3.7V76.6h0Z"/><path class="cls-2" d="M292,76.2c0.8-2.7,2.2-3,4.8-3v7.9c0,3.4-.2,3.3-2.9,3.7v0.5h8.2V84.8c-2.6-.4-2.9-0.2-2.9-3.7V73.2c2.6,0,4,.3,4.8,3l0.5-.1-0.4-3.7H291.8l-0.4,3.7,0.6,0.1h0Z"/><path class="cls-2" d="M315.7,79.9l0.3-.7,2.2-4a4.17,4.17,0,0,1,3.2-2.2V72.5h-5.5V73c1.7,0.4,2,.6.4,3.9l-1,2.1-1.7-3.5c-1.1-2.3-.5-2.2.9-2.5V72.5h-6.6V73c2.1,0.4,2.4,1.3,3.2,3l2.1,4.3v0.9c0,3.4-.2,3.3-2.8,3.7v0.5h8V84.9c-2.9-.2-2.8-1.1-2.8-3.7V79.9h0.1Z"/><path class="cls-2" d="M268.5,85.7c2.4,0,5-1.1,5-3.9,0-4-6.3-3.8-6.3-6.9a1.92,1.92,0,0,1,1.9-2c2,0,2.4,1.7,2.8,3.3h0.6l0.2-3.3a6.2,6.2,0,0,0-3.2-.9c-2.3,0-4.7,1.4-4.7,3.9,0,3.8,6.3,3.5,6.3,6.7a2.08,2.08,0,0,1-2.2,2.1c-2.2,0-3.6-2.1-4.3-4l-0.6.1,0.7,3.6a5.66,5.66,0,0,0,3.8,1.3h0Z"/><path class="cls-2" d="M302.7,23.9c-9.2,0-12.9,9-12.9,16.3,0,8.3,4.4,18.9,14.1,18.9,8.9,0,12.8-9,12.8-16.7-0.3-9.5-5.8-18.5-14-18.5h0Zm0.4-2.3c14.5,0,20.8,9.9,20.8,19.9,0,12.2-8.8,19.9-20.7,19.9s-20.7-7.8-20.7-20c-0.1-12,8.8-19.8,20.6-19.8h0Z"/><path class="cls-2" d="M172.5,23.9c-9.2,0-12.9,9-12.9,16.3,0,8.3,4.4,18.9,14.1,18.9,8.9,0,12.8-9,12.8-16.7-0.2-9.5-5.8-18.5-14-18.5h0Zm0.5-2.3c14.5,0,20.8,9.9,20.8,19.9,0,12.2-8.8,19.9-20.7,19.9s-20.7-7.8-20.7-20c-0.1-12,8.7-19.8,20.6-19.8h0Z"/><path class="cls-2" d="M268.3,31.5c0.2-5.8.2-7.6,7-8.5V22.1H256.2V23c6.8,0.9,6.9,2.6,7,8.5v20c-0.2,5.9-.2,7.6-7,8.5v0.9h19.1V60c-6.8-.9-6.9-2.6-7-8.5v-20h0Z"/><path class="cls-2" d="M213,31.5v6.3h22.6V31.5c-0.2-5.8-.2-7.6-7-8.5V22.1h19.1V23c-6.8.9-6.9,2.6-7,8.5v20c0.2,5.9.2,7.6,7,8.5v0.9H228.6V60c6.8-.9,6.9-2.6,7-8.5V41.3H213V51.5c0.2,5.9.2,7.6,7,8.5v0.9H200.9V60c6.8-.9,6.9-2.6,7-8.5v-20c-0.2-5.8-.2-7.6-7-8.5V22.1H220V23c-6.8,1-6.8,2.7-7,8.5h0Z"/></svg>